<?xml version="1.0" encoding="UTF-8" standalone="no"?>
<!-- Created with Inkscape (http://www.inkscape.org/) -->

<svg
   width="161.87074mm"
   height="58.228897mm"
   viewBox="0 0 161.87074 58.228897"
   version="1.1"
   id="svg1"
   xml:space="preserve"
   xmlns="http://www.w3.org/2000/svg"
   xmlns:svg="http://www.w3.org/2000/svg"><defs
     id="defs1"><clipPath
       id="clip0_11543_23688"><rect
         width="542"
         height="156"
         fill="#ffffff"
         id="rect5"
         x="0"
         y="0" /></clipPath></defs><g
     id="layer2"
     transform="translate(-223.83229,-90.271092)"><g
       id="g2"
       transform="translate(187.89041,-4.8114318)"
       style="stroke:#00994c;stroke-opacity:1"><rect
         style="fill:#ffffff;fill-opacity:1;stroke:#00994c;stroke-width:1.708;stroke-dasharray:none;stroke-opacity:1"
         id="rect1"
         width="160.16275"
         height="56.520901"
         x="36.795887"
         y="95.936531"
         rx="5.0003767" /><g
         style="fill:none;stroke:#00994c;stroke-opacity:1"
         id="g1"
         transform="matrix(0.26458333,0,0,0.26458333,53.98936,111.77324)"><g
           clip-path="url(#clip0_11543_23688)"
           id="g5"
           transform="translate(-29.092752,-35.767577)"
           style="stroke:#00994c;stroke-opacity:1"><path
             d="M 118.688,129.362 H 26.0067 V 56.3757 H 118.688 Z M 98.0756,23.1999 h 0.7519 -52.9606 v -6.6502 c 0,-3.6562 -2.9639,-6.62013 -6.6201,-6.62013 v 0 c -3.6562,0 -6.6201,2.96393 -6.6201,6.62013 v 6.6502 h -6.62 c -7.3484,0 -13.2401,5.9051 -13.2401,13.2702 v 92.8919 c 0,1.743 0.3424,3.469 1.0078,5.079 0.6654,1.61 1.6406,3.072 2.87,4.305 1.2295,1.232 2.6891,2.209 4.2955,2.876 1.6063,0.667 3.328,1.011 5.0668,1.011 h 92.6813 c 1.738,0 3.46,-0.344 5.067,-1.011 1.606,-0.667 3.065,-1.644 4.295,-2.876 1.229,-1.233 2.205,-2.695 2.87,-4.305 0.665,-1.61 1.008,-3.336 1.008,-5.079 V 36.4701 c 0,-7.3651 -5.958,-13.2702 -13.24,-13.2702 h -6.62 v -6.6503 c 0,-3.6561 -2.964,-6.62003 -6.621,-6.62003 v 0 c -3.656,0 -6.6195,2.96393 -6.6195,6.62003 v 6.6503"
             fill="#219653"
             id="path1"
             style="stroke:#00994c;stroke-opacity:1" /><path
             d="m 12.7705,56.3782 v 72.9858 c 0.0019,7.326 5.9268,13.265 13.2363,13.267 h 92.6852 c 7.309,-0.002 13.234,-5.941 13.236,-13.267 V 56.3782 Z"
             fill="#219653"
             id="path2"
             style="stroke:#00994c;stroke-opacity:1" /><path
             d="m 23.5996,69.5089 c 0,-2.9914 2.425,-5.4164 5.4165,-5.4164 h 86.6629 c 2.992,0 5.417,2.425 5.417,5.4164 v 56.8731 c 0,2.991 -2.425,5.416 -5.417,5.416 H 29.016 c -2.9914,0 -5.4164,-2.425 -5.4164,-5.416 z"
             fill="#ffffff"
             id="path3"
             style="stroke:#00994c;stroke-opacity:1" /><rect
             x="12.7666"
             y="63.833401"
             width="119.156"
             height="22.6964"
             fill="#219653"
             fill-opacity="0.05"
             id="rect3"
             style="stroke:#00994c;stroke-opacity:1" /><rect
             x="12.7666"
             y="86.5298"
             width="119.156"
             height="22.6964"
             fill="#219653"
             fill-opacity="0.2"
             id="rect4"
             style="stroke:#00994c;stroke-opacity:1" /><path
             d="M 12.7666,109.226 H 131.923 v 8.511 c 0,7.835 -6.351,14.186 -14.186,14.186 H 26.9518 c -7.8343,0 -14.1852,-6.351 -14.1852,-14.186 z"
             fill="#219653"
             fill-opacity="0.5"
             id="path4"
             style="stroke:#00994c;stroke-opacity:1" /><path
             d="m 188.755,123.492 c -5.221,0 -9.328,-1.266 -12.322,-3.8 -2.995,-2.534 -4.492,-7.102 -4.492,-13.705 V 74.5469 h -9.904 v -8.1768 h 9.904 l 1.267,-13.7047 h 8.407 v 13.7047 h 16.814 v 8.1768 h -16.814 v 31.4401 c 0,3.609 0.729,6.066 2.188,7.371 1.459,1.228 4.031,1.842 7.716,1.842 h 5.989 v 8.292 z m 27.838,-69.7901 c -1.919,0 -3.532,-0.6143 -4.837,-1.8427 -1.228,-1.3052 -1.843,-2.9175 -1.843,-4.837 0,-1.8426 0.615,-3.3782 1.843,-4.6066 1.305,-1.2284 2.918,-1.8427 4.837,-1.8427 1.843,0 3.417,0.6143 4.722,1.8427 1.305,1.2284 1.958,2.764 1.958,4.6066 0,1.9195 -0.653,3.5318 -1.958,4.837 -1.305,1.2284 -2.879,1.8427 -4.722,1.8427 z m -4.837,69.7901 V 66.3701 h 9.674 v 57.1219 z m 26.518,0 V 66.3701 h 8.753 l 0.691,8.2919 c 1.842,-3.0711 4.299,-5.4511 7.37,-7.1402 3.071,-1.6891 6.526,-2.5337 10.365,-2.5337 4.53,0 8.407,0.9213 11.632,2.764 3.301,1.8426 5.835,4.645 7.601,8.4071 1.996,-3.455 4.722,-6.1806 8.177,-8.1768 3.531,-1.9962 7.332,-2.9943 11.401,-2.9943 6.833,0 12.284,2.073 16.354,6.219 4.069,4.0692 6.103,10.3649 6.103,18.8872 v 33.3977 h -9.558 V 91.1308 c 0,-5.9119 -1.191,-10.365 -3.571,-13.3593 -2.38,-2.9943 -5.796,-4.4915 -10.249,-4.4915 -4.607,0 -8.446,1.8043 -11.517,5.4128 -2.994,3.5318 -4.491,8.5991 -4.491,15.2019 v 29.5973 h -9.674 V 91.1308 c 0,-5.9119 -1.19,-10.365 -3.571,-13.3593 -2.38,-2.9943 -5.796,-4.4915 -10.249,-4.4915 -4.53,0 -8.331,1.8043 -11.402,5.4128 -2.994,3.5318 -4.491,8.5991 -4.491,15.2019 v 29.5973 z m 128.701,1.382 c -5.451,0 -10.288,-1.228 -14.511,-3.685 -4.222,-2.534 -7.562,-6.027 -10.019,-10.48 -2.38,-4.453 -3.57,-9.712 -3.57,-15.7778 0,-5.9886 1.19,-11.2094 3.57,-15.6625 2.38,-4.5299 5.682,-8.0232 9.904,-10.4801 4.3,-2.5337 9.252,-3.8005 14.857,-3.8005 5.528,0 10.288,1.2668 14.28,3.8005 4.069,2.4569 7.179,5.7199 9.329,9.7891 2.149,4.0692 3.224,8.4455 3.224,13.1289 0,0.8445 -0.038,1.6891 -0.115,2.5336 0,0.8446 0,1.8043 0,2.8792 h -45.49 c 0.23,4.3766 1.228,8.0236 2.994,10.9406 1.843,2.841 4.108,4.991 6.795,6.449 2.764,1.459 5.681,2.189 8.752,2.189 3.993,0 7.333,-0.922 10.02,-2.764 2.687,-1.843 4.645,-4.338 5.873,-7.486 h 9.559 c -1.536,5.297 -4.491,9.712 -8.868,13.244 -4.299,3.455 -9.827,5.182 -16.584,5.182 z m 0,-51.7091 c -4.606,0 -8.714,1.4204 -12.322,4.2611 -3.532,2.764 -5.567,6.8332 -6.104,12.2076 h 35.932 c -0.231,-5.1441 -1.997,-9.1749 -5.298,-12.0924 -3.301,-2.9175 -7.371,-4.3763 -12.208,-4.3763 z m 42.996,50.3271 V 74.5469 h -8.638 v -8.1768 h 8.638 v -9.9043 c 0,-5.5279 1.382,-9.5587 4.146,-12.0924 2.764,-2.5336 6.795,-3.8005 12.092,-3.8005 h 5.759 v 8.292 h -4.262 c -2.917,0 -4.99,0.6142 -6.218,1.8426 -1.229,1.1517 -1.843,3.1479 -1.843,5.9887 v 9.6739 h 14.05 v 8.1768 h -14.05 v 48.9451 z m 56.087,1.382 c -6.757,0 -12.131,-2.034 -16.124,-6.103 -3.992,-4.146 -5.988,-10.481 -5.988,-19.0028 V 66.3701 h 9.674 v 32.3616 c 0,11.9003 4.875,17.8503 14.626,17.8503 4.99,0 9.098,-1.765 12.323,-5.297 3.301,-3.609 4.952,-8.714 4.952,-15.3173 V 66.3701 h 9.674 v 57.1219 h -8.753 l -0.691,-10.249 c -1.766,3.608 -4.415,6.449 -7.946,8.522 -3.455,2.073 -7.371,3.109 -11.747,3.109 z m 45.06,-1.382 V 40.5729 h 9.674 v 82.9191 z"
             fill="#000000"
             id="path5"
             style="stroke:#00994c;stroke-opacity:1" /></g></g></g></g></svg>
